<?xml version="1.0" standalone="no"?>
<!DOCTYPE svg PUBLIC "-//W3C//DTD SVG 20010904//EN"
 "http://www.w3.org/TR/2001/REC-SVG-20010904/DTD/svg10.dtd">
<svg version="1.0" xmlns="http://www.w3.org/2000/svg"
 width="512.000000pt" height="512.000000pt" viewBox="0 0 512.000000 512.000000"
 preserveAspectRatio="xMidYMid meet">

<g transform="translate(0.000000,512.000000) scale(0.100000,-0.100000)"
fill="#000000" stroke="none">
<path d="M4540 5086 c-74 -21 -105 -42 -202 -136 l-93 -89 318 -318 318 -318
91 94 c116 120 142 173 143 286 0 119 -27 170 -168 312 -131 134 -193 171
-297 178 -38 3 -84 -1 -110 -9z"/>
<path d="M593 4839 c-288 -34 -520 -248 -578 -535 -14 -71 -15 -269 -13 -1914
l3 -1835 23 -70 c38 -113 88 -193 176 -280 93 -93 182 -145 302 -175 76 -20
119 -20 2048 -20 2200 0 2028 -5 2186 72 119 59 230 169 289 288 78 159 74
118 78 850 4 592 2 658 -13 698 -29 76 -120 106 -191 62 -65 -39 -63 -15 -63
-698 0 -374 -4 -640 -10 -672 -22 -114 -85 -209 -179 -269 -102 -66 48 -61
-2117 -59 l-1969 3 -57 27 c-67 31 -147 103 -182 162 -60 102 -56 -20 -56
1950 0 1923 -2 1845 48 1943 30 57 110 134 174 166 29 14 82 31 118 37 39 6
307 10 678 10 691 0 654 -4 693 77 37 76 -2 159 -87 182 -47 13 -1189 13
-1301 0z"/>
<path d="M3075 3690 l-980 -980 318 -317 317 -318 980 980 980 980 -318 318
-317 317 -980 -980z"/>
<path d="M1966 2434 c-26 -86 -185 -669 -183 -671 4 -3 643 173 670 184 14 7
-29 54 -232 257 -200 200 -250 245 -255 230z"/>
</g>
</svg>
